<svg width="24" height="24" viewBox="0 0 24 24" fill="none" xmlns="http://www.w3.org/2000/svg">
<path d="M13.4137 4.96355L13.4138 4.96347C13.8781 4.49892 14.4294 4.13042 15.0362 3.879C15.6429 3.62758 16.2933 3.49817 16.9501 3.49817C17.6069 3.49817 18.2573 3.62758 18.8641 3.879C19.4709 4.13042 20.0222 4.49892 20.4865 4.96347L20.8401 4.60999L20.4866 4.96363C20.9512 5.42795 21.3197 5.97925 21.5711 6.58604C21.8225 7.19282 21.9519 7.84319 21.9519 8.49999C21.9519 9.1568 21.8225 9.80717 21.5711 10.414C21.3197 11.0207 20.9512 11.572 20.4866 12.0364L20.4866 12.0364L19.4266 13.0964L12.0001 20.5229L4.57367 13.0964L3.51367 12.0364C2.57575 11.0985 2.04883 9.82642 2.04883 8.49999C2.04883 7.17357 2.57575 5.90147 3.51367 4.96355C4.4516 4.02562 5.72369 3.4987 7.05012 3.4987C8.37654 3.4987 9.64864 4.02562 10.5866 4.96355L11.6466 6.02355C11.8418 6.21881 12.1584 6.21881 12.3537 6.02355L13.4137 4.96355Z" fill="#EC0344" stroke="#EC0344" stroke-linecap="round" stroke-linejoin="round"/>
</svg>
