<svg width="27" height="32" viewBox="0 0 27 32" fill="none" xmlns="http://www.w3.org/2000/svg">
<path fill-rule="evenodd" clip-rule="evenodd" d="M26.9932 14.0076C26.9932 17.599 25.5069 20.847 23.1047 23.1949C20.7018 25.5417 17.3779 26.9939 13.7027 26.9945V27H13.7021V26.9945C10.0263 26.9939 6.70181 25.5417 4.30018 23.1943C1.8973 20.847 0.411673 17.599 0.411051 14.0082C0.411051 13.0973 1.16039 12.3575 2.09319 12.3575C3.02536 12.3575 3.78154 13.0961 3.78154 14.007V14.0082C3.78154 16.6796 4.88783 19.1035 6.6875 20.8622C8.48655 22.6196 10.9672 23.7078 13.7021 23.7078V23.7011H13.7027V23.7078C16.4371 23.7078 18.9177 22.6196 20.7167 20.8622C22.5164 19.1035 23.6295 16.6796 23.6295 14.0076H23.6233V14.007C23.6233 13.0961 24.3789 12.3575 25.3116 12.3575C26.2438 12.3575 27 13.0961 27 14.007V14.0076H26.9932ZM19.4966 19.6691C18.0172 21.114 15.9694 22.0079 13.7027 22.0079V22.014H13.7021V22.0079C11.4348 22.0079 9.38701 21.114 7.90822 19.6691C6.42943 18.2235 5.51405 16.2221 5.51405 14.0082H5.50721V14.007H5.51405C5.51405 11.7919 6.42943 9.79049 7.90822 8.34554C9.38701 6.90059 11.4348 6.00668 13.7009 6.00668V6H13.7021H13.7027V6.00668C15.9688 6.00668 18.0178 6.90059 19.4966 8.34614C20.9754 9.79109 21.8902 11.7919 21.8902 14.0064H21.897V14.007V14.0076H21.8902C21.8902 16.2221 20.9754 18.2235 19.4966 19.6691ZM18.5265 14.0064C18.5265 12.7113 17.9849 11.534 17.1093 10.6783C16.2331 9.82265 15.0285 9.29286 13.7027 9.29286V9.29953H13.7021H13.7009V9.29286C12.3757 9.29286 11.1711 9.82265 10.2955 10.6783C9.41934 11.534 8.8777 12.7113 8.8777 14.007H8.88392V14.0082H8.8777C8.8777 15.3033 9.41934 16.4806 10.2955 17.3363C11.1711 18.1919 12.3757 18.7217 13.7021 18.7217V18.7151H13.7027V18.7217C15.0285 18.7217 16.2331 18.1919 17.1087 17.3363C17.9849 16.4806 18.5265 15.3033 18.5265 14.0076H18.5203V14.007V14.0064H18.5265ZM2.09567 11.6129C0.93839 11.6129 0 10.6953 0 9.56473C0 8.43414 0.93839 7.51717 2.09567 7.51717C3.25296 7.51717 4.19197 8.43414 4.19197 9.56473C4.19197 10.6953 3.25296 11.6129 2.09567 11.6129Z" fill="#EC0344"/>
</svg>
